<svg xmlns="http://www.w3.org/2000/svg" width="64" height="64" viewBox="0 0 64 64">
  <rect width="64" height="64" fill="#F3E7CE"/>
  <path d="M0 16 A16 16 0 0 1 16 0 A16 16 0 0 1 32 16 A16 16 0 0 1 16 32 A16 16 0 0 1 0 16Z" fill="#2E5E8C" opacity="0.14"/>
  <g fill="none" stroke="#2E5E8C" stroke-width="2">
    <rect x="20" y="20" width="24" height="24" transform="rotate(45 32 32)"/>
    <path d="M0 16 A16 16 0 0 1 16 0"/>
    <path d="M48 0 A16 16 0 0 1 64 16"/>
    <path d="M64 48 A16 16 0 0 1 48 64"/>
    <path d="M16 64 A16 16 0 0 1 0 48"/>
  </g>
  <circle cx="32" cy="32" r="6" fill="#C4633B"/>
  <circle cx="0" cy="0" r="4" fill="#C99A3F"/><circle cx="64" cy="0" r="4" fill="#C99A3F"/>
  <circle cx="0" cy="64" r="4" fill="#C99A3F"/><circle cx="64" cy="64" r="4" fill="#C99A3F"/>
</svg>
